<?xml version="1.0" encoding="UTF-8"?>
<svg version="1.1" xmlns="http://www.w3.org/2000/svg" width="2030" height="372">
<path d="M0 0 C9.44728137 6.85095404 16.92812105 16.59180457 24.1953125 25.6171875 C27.11066272 29.17056165 30.11874343 32.63489358 33.140625 36.09765625 C37.63832774 41.25596917 42.03058724 46.47923671 46.33984375 51.796875 C49.52097704 55.66932418 52.78816055 59.46494408 56.05664062 63.26367188 C60.83036731 68.81184345 65.55993507 74.39639979 70.28173828 79.98876953 C72.56608686 82.69337914 74.85352008 85.39537752 77.140625 88.09765625 C78.05730626 89.18097724 78.97397293 90.26431057 79.890625 91.34765625 C80.344375 91.88390625 80.798125 92.42015625 81.265625 92.97265625 C93.640625 107.59765625 106.015625 122.22265625 118.390625 136.84765625 C119.0714917 137.65227295 119.0714917 137.65227295 119.76611328 138.47314453 C120.68126913 139.55475146 121.5963085 140.63645694 122.51123047 141.71826172 C124.82505978 144.45383564 127.14098971 147.18758099 129.4609375 149.91796875 C133.69142124 154.90079972 137.8991618 159.8946834 142.015625 164.97265625 C146.18283624 170.09578692 150.50374957 175.07360553 154.84326172 180.05029297 C158.74471554 184.53497142 162.52540407 189.10238333 166.265625 193.72265625 C169.16558375 197.23313264 172.14820638 200.66598352 175.140625 204.09765625 C178.87466943 208.37981729 182.56521146 212.68096893 186.140625 217.09765625 C189.8121173 221.62583009 193.57918081 226.06233194 197.390625 230.47265625 C197.93396484 231.10365234 198.47730469 231.73464844 199.03710938 232.38476562 C202.11512151 235.93224086 205.27605629 239.3203171 208.640625 242.59765625 C214.52711558 236.10166528 220.12345173 229.40851153 225.640625 222.59765625 C232.05450878 214.73703176 238.5006652 206.90318028 244.953125 199.07421875 C247.39345517 196.11299183 249.83082018 193.1493652 252.265625 190.18359375 C257.64075482 183.6397343 263.02830207 177.11040345 268.515625 170.66015625 C272.2147855 166.31130351 275.82307594 161.90264682 279.37109375 157.4296875 C284.11343616 151.51196246 288.96624457 145.68356758 293.79394531 139.83544922 C296.16620552 136.96076162 298.53556637 134.08369418 300.90454102 131.20629883 C302.06367781 129.79841464 303.2230209 128.39070027 304.38256836 126.9831543 C307.33981975 123.39335788 310.29486101 119.80177785 313.24609375 116.20703125 C318.627896 109.65549435 324.02171318 103.11814857 329.515625 96.66015625 C333.2147855 92.31130351 336.82307594 87.90264682 340.37109375 83.4296875 C345.11343616 77.51196246 349.96624457 71.68356758 354.79394531 65.83544922 C357.16620552 62.96076162 359.53556637 60.08369418 361.90454102 57.20629883 C363.06367781 55.79841464 364.2230209 54.39070027 365.38256836 52.9831543 C368.33981975 49.39335788 371.29486101 45.80177785 374.24609375 42.20703125 C380.07015503 35.11711033 385.90584771 28.04140282 391.87524414 21.07299805 C394.62529376 17.85019571 397.21142535 14.53894004 399.765625 11.16015625 C406.61922254 2.56529917 416.79201856 -2.7247242 427.640625 -4.40234375 C440.89227492 -5.18987037 450.11777953 -4.19397634 460.4140625 4.66015625 C466.20144796 12.29544373 467.22968302 20.91430248 467.14855957 30.23075867 C467.15479953 31.34932261 467.1610395 32.46788655 467.16746855 33.62034637 C467.18332806 37.34045989 467.17082141 41.05991178 467.15820312 44.7800293 C467.16362728 47.45831188 467.17060767 50.13655 467.17944336 52.81481934 C467.1971698 59.31653406 467.1934155 65.81806341 467.1817928 72.3197852 C467.17273782 77.60503407 467.17154336 82.8902312 467.17588806 88.17548561 C467.17650099 88.92935906 467.17711393 89.6832325 467.17774543 90.4599506 C467.1790244 91.99166889 467.18032125 93.52338717 467.1816358 95.05510543 C467.19302376 109.39513195 467.17995475 123.73505594 467.15843433 138.07506565 C467.14055402 150.37016337 467.14367856 162.66511006 467.16210938 174.96020508 C467.18352883 189.25560373 467.19193677 203.55091276 467.17966032 217.84632522 C467.17838618 219.37130819 467.1771287 220.89629118 467.17588806 222.42127419 C467.17527096 223.17150573 467.17465386 223.92173727 467.17401806 224.6947031 C467.17056919 229.97300627 467.17638325 235.2512524 467.18580627 240.52954674 C467.19703914 246.96265144 467.19395886 253.39556098 467.1726833 259.8286434 C467.16219162 263.10874528 467.16018232 266.38845594 467.17127991 269.66856575 C467.18221195 273.22786957 467.16849841 276.78625917 467.14855957 280.34550476 C467.15748246 281.3769276 467.16640534 282.40835043 467.17559862 283.47102851 C467.1088704 289.61297163 466.31645065 294.53494643 462.640625 299.59765625 C455.64465069 305.1658807 449.13435462 304.84514095 440.60913086 304.89282227 C439.1806444 304.9043071 437.75219967 304.92470361 436.32397461 304.9543457 C421.43737797 305.26308175 421.43737797 305.26308175 414.640625 300.59765625 C410.14089103 294.94414434 409.4911445 290.5051682 409.48240662 283.49226379 C409.47746864 282.65665584 409.47253066 281.82104788 409.46744305 280.96011847 C409.45204174 278.15025355 409.4437003 275.34041152 409.43530273 272.53051758 C409.42572628 270.52024635 409.41571634 268.50997715 409.40530396 266.49971008 C409.37822362 261.03313284 409.35723099 255.56654694 409.33730197 250.09993958 C409.31546171 244.39039668 409.28806344 238.68088056 409.26124573 232.97135925 C409.21129231 222.15543739 409.16636331 211.33950068 409.12322336 200.52354974 C409.07387362 188.21172573 409.0189471 175.89992861 408.96354377 163.58813059 C408.84968306 138.25799755 408.74285293 112.92783873 408.640625 87.59765625 C406.7508755 89.78759146 404.86317468 91.97923951 402.9765625 94.171875 C402.44925537 94.78252808 401.92194824 95.39318115 401.37866211 96.02233887 C396.94133005 101.18444653 392.73802235 106.5042281 388.56640625 111.8828125 C385.2694684 116.0989243 381.86403618 120.2235916 378.453125 124.34765625 C374.17358256 129.52217307 369.9219019 134.71298147 365.7421875 139.96875 C362.9977247 143.40187911 360.22604174 146.81249293 357.453125 150.22265625 C356.89890869 150.90448975 356.34469238 151.58632324 355.77368164 152.28881836 C352.95228295 155.75872127 350.12816843 159.22638133 347.30078125 162.69140625 C342.14769833 169.01234828 337.02779521 175.35170469 332.015625 181.78515625 C328.05187749 186.87117825 323.95072756 191.8139911 319.75854492 196.71264648 C316.04016324 201.07718828 312.49557244 205.56004321 308.9765625 210.0859375 C304.7001384 215.56698811 300.27468991 220.91878475 295.83935547 226.27148438 C292.14129825 230.74525143 288.51583863 235.26555346 284.953125 239.84765625 C281.01186392 244.91499192 276.93199071 249.83596859 272.75830078 254.71289062 C269.51650616 258.51812637 266.3974788 262.40238365 263.328125 266.34765625 C259.08073226 271.79744726 254.76584482 277.187342 250.390625 282.53515625 C249.82432373 283.23286133 249.25802246 283.93056641 248.67456055 284.64941406 C239.32167601 296.03268861 229.20829159 304.40984421 214.07421875 306.38671875 C200.03815903 307.60332746 187.45538722 304.10411167 176.08984375 295.71484375 C173.56138861 293.52916164 171.58755666 291.27961358 169.515625 288.66015625 C168.74089844 287.69335938 167.96617187 286.7265625 167.16796875 285.73046875 C166.55477783 284.96524902 166.55477783 284.96524902 165.92919922 284.18457031 C163.69170713 281.42903818 161.38149678 278.73561994 159.078125 276.03515625 C155.28089577 271.56878312 151.57204766 267.04729533 147.9296875 262.453125 C143.10293945 256.4320451 138.16166311 250.5035104 133.25048828 244.55126953 C131.20743611 242.07196964 129.172913 239.58578455 127.140625 237.09765625 C121.60359524 230.32221503 116.03573475 223.57217949 110.47119141 216.81933594 C106.94747754 212.54275603 103.42528533 208.26492288 99.90283203 203.98730469 C96.92402938 200.37000834 93.94481201 196.75305494 90.96484375 193.13671875 C85.3077512 186.27084574 79.65681294 179.4002744 74.02734375 172.51171875 C69.1883391 166.60353958 64.32778972 160.71305381 59.47119141 154.81933594 C55.94747754 150.54275603 52.42528533 146.26492288 48.90283203 141.98730469 C45.92402938 138.37000834 42.94481201 134.75305494 39.96484375 131.13671875 C34.32185188 124.28795939 28.68336434 117.43584083 23.0703125 110.5625 C21.08020894 108.13406174 19.08473379 105.71033878 17.0859375 103.2890625 C16.45623047 102.5259375 15.82652344 101.7628125 15.17773438 100.9765625 C13.92719544 99.46160931 12.67592314 97.94726111 11.42382812 96.43359375 C10.84826172 95.73621094 10.27269531 95.03882813 9.6796875 94.3203125 C9.16615723 93.69906494 8.65262695 93.07781738 8.12353516 92.43774414 C6.58154929 90.5243514 5.1106477 88.56663873 3.640625 86.59765625 C3.63823665 87.64256509 3.63584829 88.68747393 3.63338757 89.76404667 C3.57459954 115.18605168 3.49872098 140.60796185 3.40491009 166.0298624 C3.35993977 178.32369187 3.3205279 190.61749229 3.29418945 202.91137695 C3.27121945 213.62641083 3.23783248 224.34135287 3.19192344 235.05631393 C3.16797789 240.73008237 3.14925779 246.40375977 3.14301109 252.07757759 C3.13696635 257.41849412 3.11698827 262.75917769 3.08634949 268.10000801 C3.07755953 270.05953352 3.07384866 272.01908946 3.07561684 273.97863388 C3.07727014 276.65644018 3.06056544 279.33353683 3.03935242 282.01124573 C3.04419999 282.78460929 3.04904757 283.55797285 3.05404204 284.35477167 C2.97019349 290.77915811 1.49874374 295.39725248 -2.734375 300.41015625 C-8.96819864 305.60500928 -15.83024799 304.97004287 -23.54174805 304.96826172 C-25.65561263 304.9726227 -27.76736521 305.00894491 -29.88085938 305.046875 C-37.36544243 305.10954939 -43.03996945 304.85469422 -49.359375 300.59765625 C-53.2014028 296.55860138 -54.48095091 293.45641538 -54.49638939 287.9460516 C-54.50146393 286.98482826 -54.50653847 286.02360493 -54.51176679 285.03325361 C-54.51226455 283.9749116 -54.51276231 282.91656959 -54.51327515 281.82615662 C-54.5176574 280.70358855 -54.52203965 279.58102048 -54.5265547 278.4244352 C-54.53996581 274.6428998 -54.5461268 270.86138772 -54.55224609 267.07983398 C-54.55961793 264.37643654 -54.56840899 261.67304399 -54.57702637 258.96965027 C-54.60154981 250.84175717 -54.61617844 242.71385797 -54.62908643 234.58593926 C-54.63279873 232.28976684 -54.63677194 229.99359503 -54.6408391 227.69742322 C-54.6660785 213.43548481 -54.68812952 199.17354544 -54.70056725 184.91158962 C-54.7034969 181.60797052 -54.70645857 178.30435145 -54.70947266 175.00073242 C-54.71021871 174.17964235 -54.71096476 173.35855229 -54.71173342 172.5125807 C-54.72438118 159.21781666 -54.75759624 145.92318654 -54.79927449 132.62848508 C-54.84172448 118.9755311 -54.86526591 105.32264561 -54.87048781 91.66962582 C-54.87389871 84.00543772 -54.8856156 76.34145881 -54.91859055 68.67733574 C-54.94663458 62.14858101 -54.95757148 55.62007834 -54.94639508 49.09126806 C-54.94121901 45.76217552 -54.94676793 42.43403671 -54.96886063 39.10494995 C-54.99154883 35.48887549 -54.98325666 31.87412304 -54.96737671 28.25804138 C-54.9812588 27.21531443 -54.99514088 26.17258747 -55.00944364 25.09826273 C-54.92307292 17.09611989 -52.8938724 10.50405256 -47.44475782 4.48158354 C-34.67403835 -7.75715309 -15.01148054 -8.92238661 0 0 Z " fill="#EC2B2F" transform="translate(1196.359375,59.40234375)"/>
<path d="M0 0 C1.10589478 0.07105957 1.10589478 0.07105957 2.23413086 0.14355469 C13.59111278 0.9977044 22.50026831 3.56729567 31.3125 10.875 C34.13159459 14.20008592 36.32463074 17.71222842 38.6171875 21.4140625 C41.11321156 25.31810013 43.75497258 29.09771255 46.4375 32.875 C46.95127197 33.59848633 47.46504395 34.32197266 47.99438477 35.06738281 C49.05209664 36.55481568 50.11045183 38.04179128 51.16943359 39.52832031 C53.70675231 43.09483257 56.22777044 46.67280936 58.75 50.25 C59.74991687 51.66672535 60.74991699 53.08339193 61.75 54.5 C127.75 148 127.75 148 129.24975586 150.12475586 C130.25044188 151.54232654 131.25125583 152.95980692 132.25219727 154.37719727 C134.74275451 157.90430572 137.23111592 161.43292217 139.71484375 164.96484375 C144.82232086 172.22235112 149.97045023 179.44579586 155.1875 186.625 C160.2137856 193.54692189 165.07203954 200.56937546 169.87695312 207.64624023 C174.07822919 213.81513073 178.41376839 219.87529399 182.8046875 225.91015625 C187.45647905 232.31334174 191.99320743 238.79268101 196.51708984 245.28662109 C200.39175411 250.83797781 204.3295942 256.33840966 208.3125 261.8125 C213.29503088 268.66498799 218.10784769 275.61850932 222.86425781 282.62939453 C226.13270049 287.43133917 229.46670396 292.17610922 232.88208008 296.87475586 C233.99316938 298.4039363 235.09858792 299.93725485 236.19799805 301.47485352 C238.49742845 304.68838285 240.79783096 307.85172114 243.34375 310.875 C249.74815063 318.99325432 250.0247142 326.67064141 249.02880859 336.64013672 C247.94819557 344.81759538 244.68005491 349.83849563 238.29296875 354.99609375 C229.01092638 361.39799394 217.82290265 364.95282412 206.5 363.25 C192.58647825 359.65361312 184.30671396 347.00792194 176.95751953 335.59619141 C174.51159585 331.85658871 171.96658495 328.18361922 169.4375 324.5 C168.87853027 323.6843457 168.31956055 322.86869141 167.74365234 322.02832031 C162.86740209 314.91436768 157.98189146 307.8067736 153.09277344 300.70166016 C151.7307092 298.7219617 150.36916263 296.74190832 149.0078125 294.76171875 C148.55204834 294.09889893 148.09628418 293.4360791 147.62670898 292.75317383 C146.71678431 291.42919227 145.8074315 290.10481749 144.89868164 288.7800293 C142.48450822 285.26245732 140.05764095 281.75448977 137.61328125 278.2578125 C137.1028125 277.52433594 136.59234375 276.79085938 136.06640625 276.03515625 C135.08190701 274.62105735 134.09375996 273.2094894 133.1015625 271.80078125 C129.75 266.9749244 129.75 266.9749244 129.75 264.75 C96.39056925 264.32753944 63.03275063 264.03250959 29.67092592 263.90661436 C25.72592587 263.89161899 21.78093073 263.87557661 17.8359375 263.85888672 C17.05061217 263.85558188 16.26528683 263.85227705 15.45616376 263.84887207 C2.76558099 263.79297429 -9.92270726 263.65240919 -22.61218297 263.4801383 C-35.64825805 263.30506224 -48.68262261 263.22193183 -61.71988392 263.22284317 C-69.75636258 263.22054544 -77.78571724 263.14791378 -85.82053292 262.98310024 C-91.99887827 262.86408239 -98.1711949 262.87348385 -104.35029602 262.92901421 C-106.87236665 262.93201503 -109.39488687 262.89437483 -111.91560364 262.81169319 C-125.29836815 262.18988704 -125.29836815 262.18988704 -136.77908707 268.0627327 C-141.53839432 273.79355744 -145.08066832 280.07579115 -148.52225685 286.65590096 C-151.32623285 291.67735305 -154.79611644 296.16492054 -158.25 300.75 C-160.38482553 303.79190152 -162.4757055 306.86250138 -164.5625 309.9375 C-165.68990617 311.59258281 -166.81751363 313.24752851 -167.9453125 314.90234375 C-168.49993164 315.71687012 -169.05455078 316.53139648 -169.62597656 317.37060547 C-171.13796411 319.58585361 -172.65663296 321.79625689 -174.1796875 324.00390625 C-174.63980225 324.67091553 -175.09991699 325.3379248 -175.57397461 326.02514648 C-176.47756338 327.33385366 -177.3820129 328.64196699 -178.28735352 329.94946289 C-180.54648808 333.22423621 -182.76031419 336.51947464 -184.91015625 339.8671875 C-195.10929901 355.70309967 -195.10929901 355.70309967 -204.25 358.75 C-214.9932522 360.15386377 -225.33178396 357.8727156 -234.25 351.66015625 C-240.66418037 346.20623835 -244.09083111 341.27990033 -245.0625 332.8125 C-244.83595607 327.24200876 -242.80970657 323.84560028 -239.828125 319.33203125 C-239.15608788 318.28715042 -239.15608788 318.28715042 -238.47047424 317.22116089 C-237.07443006 315.05688298 -235.66341552 312.90296288 -234.25 310.75 C-233.41045672 309.45782435 -232.57148673 308.165276 -231.7331543 306.87231445 C-229.23434429 303.02901089 -226.71181356 299.20158 -224.1875 295.375 C-223.26833437 293.97849785 -222.34939335 292.58184784 -221.43066406 291.18505859 C-220.03683093 289.06594628 -218.64290417 286.94689675 -217.24832153 284.82827759 C-212.9857962 278.35237714 -208.74042335 271.86539308 -204.5 265.375 C-203.81478271 264.32650879 -203.12956543 263.27801758 -202.42358398 262.19775391 C-201.05248203 260.09966791 -199.681469 258.00152381 -198.31054688 255.90332031 C-194.79155801 250.51809992 -191.27066716 245.13412326 -187.75 239.75 C-186.33332457 237.58333907 -184.91665789 235.4166724 -183.5 233.25 C-152.33333333 185.58333333 -121.16666667 137.91666667 -90 90.25 C-89.29883057 89.17758057 -88.59766113 88.10516113 -87.87524414 87.00024414 C-86.45792152 84.83266045 -85.04044094 82.66518004 -83.62280273 80.49780273 C-80.08987239 75.0960005 -76.55966677 69.69245654 -73.03515625 64.28515625 C-69.15658237 58.33657462 -65.266517 52.39561658 -61.37023926 46.45861816 C-60.20589391 44.68272824 -59.04372963 42.90542444 -57.88183594 41.12792969 C-55.87920295 38.06581018 -53.86843543 35.00916229 -51.85250854 31.95578003 C-51.09016802 30.79867991 -50.33024125 29.63998499 -49.57302856 28.47952271 C-40.73627002 14.94600598 -32.62269915 4.27203412 -16.25 0.75 C-10.72467164 -0.11404312 -5.57414118 -0.35841592 0 0 Z M-3.25 74.75 C-4.73261244 76.4577829 -4.73261244 76.4577829 -6.2265625 78.703125 C-6.81058838 79.54367432 -7.39461426 80.38422363 -7.99633789 81.25024414 C-8.61629639 82.15766357 -9.23625488 83.06508301 -9.875 84 C-10.83104126 85.38336548 -10.83104126 85.38336548 -11.80639648 86.79467773 C-15.64207426 92.35834081 -19.42558491 97.95402437 -23.1484375 103.59375 C-27.54476892 110.19641876 -32.05808822 116.72052205 -36.54443359 123.26220703 C-39.28256178 127.2561272 -42.01611405 131.25317536 -44.75 135.25 C-45.83330998 136.83334931 -46.91664334 138.41668262 -48 140 C-48.53625 140.78375 -49.0725 141.5675 -49.625 142.375 C-54.5 149.5 -54.5 149.5 -56.12451172 151.87426758 C-57.20949599 153.46002635 -58.29445687 155.04580113 -59.37939453 156.6315918 C-62.06227845 160.55294642 -64.74554807 164.4740359 -67.4296875 168.39453125 C-70.11357148 172.3148896 -72.79600258 176.23623874 -75.47753906 180.15820312 C-76.73950842 182.00352912 -78.00192619 183.84854849 -79.26464844 185.69335938 C-81.34433367 188.7322306 -83.4223224 191.77225591 -85.5 194.8125 C-86.15661621 195.7713208 -86.81323242 196.7301416 -87.48974609 197.71801758 C-88.09641113 198.60642334 -88.70307617 199.4948291 -89.328125 200.41015625 C-89.86856445 201.20043213 -90.40900391 201.99070801 -90.96582031 202.80493164 C-92.28161112 204.71356051 -92.28161112 204.71356051 -93.25 206.75 C-33.52 206.75 26.21 206.75 87.75 206.75 C81.70740384 197.25287325 81.70740384 197.25287325 75.53515625 187.84375 C75.07572128 187.15293335 74.61628632 186.4621167 74.14292908 185.75036621 C73.18320374 184.30827783 72.22288007 182.86658746 71.26196289 181.42529297 C69.81599735 179.25524868 68.37375451 177.08276147 66.93164062 174.91015625 C62.24652744 167.86876207 57.48730191 160.9174486 52.46899414 154.10693359 C50.0168163 150.74472299 47.72030123 147.29093273 45.4375 143.8125 C40.24243554 135.96252042 34.97777236 128.16100212 29.6875 120.375 C29.2898645 119.78962463 28.892229 119.20424927 28.48254395 118.60113525 C26.42629547 115.57412792 24.36954549 112.54746186 22.3125 109.52099609 C18.35708787 103.700982 14.4060113 97.87802498 10.4548645 92.05511475 C9.20893132 90.21908164 7.96276521 88.38320683 6.71655273 86.54736328 C5.95556063 85.42611069 5.19457401 84.30485438 4.43359375 83.18359375 C3.76900146 82.20447021 3.10440918 81.22534668 2.41967773 80.21655273 C1.18940601 78.39911813 -0.03260846 76.57608732 -1.25 74.75 C-1.91 74.75 -2.57 74.75 -3.25 74.75 Z " fill="#FEFFFF" transform="translate(249.25,0.25)"/>
<path d="M0 0 C3.15037201 0.001083 6.30072445 -0.00384708 9.45109218 -0.00860542 C16.89732271 -0.0196341 24.34350276 -0.02017579 31.78973746 -0.01409125 C39.41225797 -0.00805743 47.03459361 -0.02036283 54.65708262 -0.04166132 C61.25642125 -0.05940709 67.85570174 -0.06525845 74.45506328 -0.06202358 C78.37236536 -0.06023106 82.28953554 -0.06263923 86.20681548 -0.07673812 C123.05073052 -0.19790297 160.20305711 3.50365541 188.40130973 29.89142632 C197.86299727 40.00903675 202.725989 52.76289684 202.83221793 66.50348687 C202.83878913 67.2099183 202.84536033 67.91634973 202.85213065 68.64418817 C202.87176526 70.97139384 202.88350529 73.29853523 202.89349723 75.62580132 C202.89757276 76.42514407 202.90164828 77.22448682 202.90584731 78.04805207 C202.92666798 82.28059016 202.94098593 86.51309624 202.95038199 90.74567437 C202.96142728 95.09538937 202.99581664 99.44459015 203.03555369 103.79412389 C203.06182216 107.15810303 203.07008293 110.52196159 203.07366347 113.88603425 C203.07850445 115.48826143 203.0900466 117.09048414 203.10870147 118.69261003 C203.22129517 129.00474835 203.01080492 138.09612262 196.09271598 146.36408257 C192.73218331 149.03527521 190.2445065 149.42656596 186.0849998 149.4246304 C185.14199324 149.42662145 184.19898669 149.4286125 183.22740418 149.43066388 C181.67051433 149.42629462 181.67051433 149.42629462 180.08217216 149.42183709 C178.43061387 149.42311873 178.43061387 149.42311873 176.74569076 149.42442626 C173.0375377 149.42608004 169.32942936 149.4205613 165.62128043 149.41510797 C162.97062428 149.41482605 160.31997091 149.41493984 157.6693151 149.41555047 C151.9529795 149.4160753 146.2366553 149.41293281 140.52032256 149.40731263 C132.25542473 149.39919204 123.99053241 149.39658184 115.72563102 149.39532464 C102.31698369 149.393135 88.90834243 149.3864773 75.4996984 149.37702203 C62.473006 149.36784563 49.44631525 149.36076591 36.41962028 149.35651422 C35.61690664 149.35625149 34.814193 149.35598877 33.9871547 149.35571808 C29.96025145 149.35441306 25.93334818 149.35314935 21.90644491 149.35190618 C-11.51063581 149.34153631 -44.92770917 149.32392039 -78.34478402 149.30158257 C-78.05239207 151.52500726 -77.75281281 153.74748746 -77.45025277 155.96955132 C-77.20118173 157.82616387 -77.20118173 157.82616387 -76.94707894 159.72028375 C-75.31971001 169.39676323 -70.84726908 177.64563368 -63.31353402 184.02033257 C-47.47832969 195.26562261 -28.53386114 197.40234796 -9.68462777 197.51252007 C-7.69234532 197.53340197 -5.70006288 197.55430132 -3.70779157 197.5762198 C1.17201605 197.62909101 6.05181968 197.67365528 10.93182731 197.70294976 C13.68127268 197.71988778 16.4304398 197.74460917 19.17973685 197.77780938 C21.7595074 197.80865755 24.33944514 197.82816992 26.91939139 197.83487725 C34.86440672 197.94690501 40.18530402 198.44854385 46.46771598 203.61408257 C50.84836405 208.99602163 50.99529645 214.59218799 50.96771598 221.23908257 C50.98382926 222.01187554 50.99994254 222.78466851 51.0165441 223.58087945 C51.02216134 230.22607399 49.64901006 234.87669788 45.34271598 240.11408257 C40.8884463 243.73965091 36.47988385 244.55122999 30.83124137 244.56037164 C29.70468635 244.56667596 28.57813132 244.57298028 27.41743827 244.57947564 C25.60347808 244.57340295 25.60347808 244.57340295 23.75287223 244.56720757 C22.48414771 244.56912103 21.21542319 244.57103448 19.90825248 244.57300591 C17.21577716 244.57436663 14.52366476 244.57169147 11.83124137 244.56232476 C9.11923771 244.55332999 6.40750186 244.55306906 3.69549918 244.56232476 C-16.85753374 244.62782441 -37.53240796 244.43671926 -57.78228402 240.48908257 C-58.67931039 240.31949029 -59.57633676 240.149898 -60.50054574 239.97516656 C-68.67141556 238.36182402 -76.51385318 236.1217526 -84.34478402 233.30158257 C-85.43275277 232.91099664 -86.52072152 232.5204107 -87.64165902 232.11798882 C-106.06232519 224.98816245 -121.7150143 209.98939843 -130.34478402 192.30158257 C-134.08316572 182.43044781 -135.49266152 173.07252423 -135.50591683 162.58112359 C-135.51088174 161.63044503 -135.51584664 160.67976647 -135.520962 159.70027947 C-135.53551219 156.56867507 -135.54237561 153.43712142 -135.54790902 150.30548882 C-135.5507364 149.2286225 -135.55356378 148.15175618 -135.55647683 147.04225755 C-135.57144479 141.33743698 -135.5806879 135.63264153 -135.5850184 129.92780328 C-135.59048283 124.0744802 -135.61447493 118.22139211 -135.64299035 112.36814237 C-135.66174795 107.83383825 -135.66682938 103.2995891 -135.66835427 98.76524949 C-135.67135452 96.60978632 -135.67929251 94.45432349 -135.69253945 92.29889894 C-135.81655053 70.55986545 -134.41824671 50.92435087 -118.59136605 34.42438531 C-99.44356886 15.26042146 -73.67370749 6.49231651 -47.34478402 2.30158257 C-45.82716218 2.05041177 -45.82716218 2.05041177 -44.27888131 1.7941668 C-29.58985228 -0.28607752 -14.80152874 -0.0101019 0 0 Z M-77.34478402 64.30158257 C-82.6553876 73.80475574 -82.6553876 73.80475574 -80.34478402 101.30158257 C-4.44478402 101.30158257 71.45521598 101.30158257 149.65521598 101.30158257 C152.3906167 77.1688304 152.3906167 77.1688304 143.96771598 62.42658257 C123.31304405 45.59042143 91.98639 45.98521256 66.95209098 46.03595757 C64.57906405 46.03460639 62.20603739 46.0326621 59.83301139 46.03015924 C54.88097832 46.02722701 49.92901788 46.03144246 44.97699332 46.04084039 C38.68605457 46.05220851 32.39528705 46.04567985 26.10435462 46.03369546 C21.20875148 46.02640374 16.31318767 46.02879844 11.41758323 46.03395104 C9.10076477 46.03526872 6.78394254 46.03370728 4.46712852 46.02899194 C-39.55202955 45.25272122 -39.55202955 45.25272122 -77.34478402 64.30158257 Z " fill="#EB2B2F" transform="translate(1822.3447840213776,119.69841742515564)"/>
<path d="M0 0 C1.155 -0.020625 2.31 -0.04125 3.5 -0.0625 C10.14674959 -0.09285045 15.25183622 0.30031475 21.25 3.25 C24.98605635 6.98605635 27.04645242 10.85521324 27.49609566 16.14537525 C27.49333028 17.75344311 27.49333028 17.75344311 27.49050903 19.39399719 C27.49325836 20.62933701 27.49600769 21.86467682 27.49884033 23.13745117 C27.49176303 24.498292 27.48449342 25.85913183 27.47705078 27.2199707 C27.47648637 28.65911349 27.4768038 30.09825684 27.47793579 31.53739929 C27.47850916 35.43785587 27.46675747 39.33818922 27.45278788 43.23861718 C27.44027784 47.31720875 27.4391098 51.39580321 27.43673706 55.47441101 C27.4305231 63.19495259 27.4141134 70.91543746 27.39403808 78.63595408 C27.37167649 87.42670496 27.36068499 96.21745856 27.35064721 105.00823081 C27.32974711 123.08885267 27.29457274 141.16942178 27.25 159.25 C28.1609118 158.79316141 29.0718236 158.33632282 30.01033878 157.86564064 C52.17412987 146.75044697 74.34137813 135.64217284 96.51226902 124.54114723 C107.23385642 119.17261884 117.95430893 113.80184707 128.67211914 108.42578125 C138.01366748 103.74005709 147.35731694 99.05855429 156.70351452 94.38211 C161.65223717 91.90579308 166.59988142 89.4273741 171.54501534 86.94389725 C176.20034879 84.60604334 180.85847277 82.27384774 185.51878929 79.94594383 C187.22782862 79.09101179 188.935842 78.23402523 190.64273834 77.37482262 C192.97596487 76.20073024 195.31279367 75.03413287 197.65065002 73.86929321 C198.32284893 73.5288245 198.99504784 73.18835578 199.68761641 72.83756983 C208.61890225 68.41400057 216.39902286 67.88516985 226.1875 67.875 C227.42435547 67.85050781 228.66121094 67.82601562 229.93554688 67.80078125 C238.22958663 67.77418358 243.90630114 68.41732454 250.30859375 74.06640625 C250.76363281 74.64261719 251.21867187 75.21882813 251.6875 75.8125 C252.16058594 76.39128906 252.63367187 76.97007812 253.12109375 77.56640625 C255.92867864 81.75349652 255.79267517 86.41311264 255.25 91.25 C253.00753525 99.00578573 247.12606984 103.9845613 240.34521484 107.94775391 C236.98718975 109.69532378 233.59975153 111.36091072 230.1875 113 C229.08083984 113.54398437 227.97417969 114.08796875 226.83398438 114.6484375 C221.36401275 117.32685849 215.87171819 119.95728655 210.36901855 122.56776428 C195.31895232 129.71613386 180.39923739 137.10972088 165.50390625 144.57421875 C163.02591299 145.8144347 160.5476125 147.05403619 158.06932068 148.2936554 C152.28230613 151.18869601 146.49631101 154.08576764 140.71071142 156.98363477 C134.10652465 160.29138266 127.50115574 163.59676673 120.89570343 166.90198648 C107.34585066 173.68209205 93.79743025 180.46505507 80.25 187.25 C83.54849007 189.92352223 87.02271049 191.75321291 90.82060242 193.63873291 C91.80850705 194.13132099 91.80850705 194.13132099 92.81636935 194.63386035 C95.01983352 195.73139169 97.22609758 196.82317146 99.43237305 197.91503906 C101.01458522 198.70176937 102.5966067 199.4888833 104.17845154 200.27635193 C107.58442361 201.97109516 110.99156268 203.66346121 114.39957237 205.35410309 C119.79445674 208.03084731 125.18563378 210.71499798 130.5761261 213.40057373 C145.90509555 221.03628427 161.23799547 228.66405997 176.5769043 236.27978516 C185.04916853 240.48632018 193.51779597 244.70008629 201.98254615 248.92172217 C207.33331748 251.58981077 212.68838795 254.24899619 218.04684579 256.90161085 C221.39051089 258.55950939 224.72990057 260.22587831 228.06817055 261.89460945 C229.60907575 262.66279013 231.15168605 263.4275622 232.69616699 264.18852806 C254.89897632 275.13448978 254.89897632 275.13448978 258.66015625 284.078125 C260.15937086 289.59841192 260.25787128 294.9872923 257.5625 300.125 C253.46303909 305.66481203 248.92620293 308.55859157 242.25 310.25 C237.80599752 310.70155285 233.40136086 310.71452392 228.9375 310.6875 C227.77798828 310.70748047 226.61847656 310.72746094 225.42382812 310.74804688 C224.27720703 310.74740234 223.13058594 310.74675781 221.94921875 310.74609375 C220.92658936 310.74794678 219.90395996 310.7497998 218.8503418 310.75170898 C206.67883007 309.05560424 195.43216376 302.04345629 184.59375 296.5859375 C182.68224188 295.62865039 180.77049411 294.67184169 178.85852051 293.71548462 C174.85924063 291.71355153 170.86194611 289.70772901 166.86621094 287.69873047 C161.80080856 285.15197389 156.73202709 282.61203962 151.66188812 280.07472801 C146.76291962 277.62263488 141.86581185 275.1668355 136.96875 272.7109375 C136.06162766 272.25643597 135.15450531 271.80193443 134.21989441 271.33366013 C124.14460564 266.28253292 114.11900304 261.15358196 104.15769482 255.88111115 C96.19195533 251.67288881 88.14549632 247.63409281 80.08203125 243.6171875 C78.53968065 242.8469491 76.99742086 242.07652887 75.45524597 241.30593872 C71.4697357 239.31505841 67.48302915 237.32658612 63.49603271 235.33868408 C59.39829508 233.2950054 55.3017428 231.24895341 51.20507812 229.203125 C43.22118395 225.21647961 35.2360188 221.23238745 27.25 217.25 C27.25888245 218.2344812 27.26776489 219.2189624 27.2769165 220.23327637 C27.35816047 229.53132235 27.41804112 238.82929589 27.45724869 248.12761688 C27.47808372 252.90749457 27.5063264 257.68708467 27.55175781 262.46679688 C27.59536171 267.083367 27.61916781 271.69966128 27.62950897 276.31642151 C27.63687431 278.07382039 27.65125706 279.83120493 27.67292023 281.58848572 C27.70214838 284.05866594 27.70594804 286.52772033 27.70410156 288.99804688 C27.72567322 290.07699219 27.72567322 290.07699219 27.74768066 291.17773438 C27.70453252 296.54612203 26.27674844 300.78890089 23.25 305.25 C16.08637198 311.07044776 9.30542909 310.46108424 0.4375 310.5 C-1.30756836 310.5309375 -1.30756836 310.5309375 -3.08789062 310.5625 C-9.41265119 310.591298 -14.23012474 310.46362601 -19.75 307.25 C-25.89536431 301.10463569 -26.97195365 295.54366348 -27.026811 287.16282576 C-27.0237138 286.09308542 -27.0206166 285.02334507 -27.01742554 283.92118835 C-27.02195665 282.77493368 -27.02648776 281.62867901 -27.03115618 280.44768935 C-27.04382373 276.60400136 -27.04217827 272.76045462 -27.04052734 268.91674805 C-27.04542427 266.16202256 -27.05325966 263.407307 -27.06088257 260.65258789 C-27.0774817 253.94469832 -27.08299162 247.23684391 -27.08410732 240.52893551 C-27.08505831 235.07529837 -27.0891711 229.6216728 -27.09550858 224.16803932 C-27.11311795 208.69922782 -27.12234791 193.23044405 -27.12084763 177.76162245 C-27.12076772 176.92803362 -27.1206878 176.0944448 -27.12060547 175.2355957 C-27.12052371 174.40098676 -27.12044195 173.56637781 -27.12035771 172.70647768 C-27.11954487 159.18168474 -27.13868265 145.65700319 -27.1668822 132.13224246 C-27.19562206 118.23849865 -27.20942189 104.34480914 -27.20769465 90.45103484 C-27.20703113 82.65338646 -27.21250661 74.85585484 -27.23405075 67.05823326 C-27.25227706 60.41901097 -27.25659805 53.77995838 -27.2430319 47.14072188 C-27.23650935 43.7551519 -27.23853916 40.37017258 -27.2537384 36.98459053 C-27.26916861 33.30935742 -27.25989595 29.63497726 -27.24447632 25.95976257 C-27.25476344 24.89671439 -27.26505057 23.83366621 -27.27564943 22.73840445 C-27.21532967 16.22574977 -26.3077681 10.81962026 -22.75 5.25 C-15.70810015 -0.61824987 -8.77723731 0.03866624 0 0 Z " fill="#EC2B2F" transform="translate(864.75,53.75)"/>
<path d="M0 0 C0.79725368 -0.00532368 1.59450737 -0.01064735 2.41592026 -0.01613235 C6.62671693 -0.04267758 10.8374857 -0.06212061 15.04833984 -0.07666016 C18.51475144 -0.09004272 21.98058046 -0.1180007 25.44677734 -0.15869141 C29.6599648 -0.20811729 33.87262136 -0.23279004 38.08608627 -0.23988724 C39.6816173 -0.2465715 41.27713774 -0.26171947 42.87250137 -0.28577805 C57.83859362 -0.49882562 57.83859362 -0.49882562 63.70991516 3.83531189 C68.36641747 8.59390412 69.60999416 13.88556079 69.61523438 20.38867188 C69.59525391 21.19626953 69.57527344 22.00386719 69.5546875 22.8359375 C69.56177734 23.64740234 69.56886719 24.45886719 69.57617188 25.29492188 C69.50439994 32.13533909 68.28994217 37.05130204 63.3671875 42.0859375 C57.89636414 45.76822245 52.59223815 46.52075968 46.09057617 46.56054688 C45.42596375 46.56737991 44.76135132 46.57421295 44.07659912 46.58125305 C42.64388038 46.59475728 41.2111146 46.60386405 39.77834129 46.60896301 C37.49173787 46.61734669 35.20551619 46.63794507 32.91902161 46.66149902 C28.04763495 46.70952142 23.17620841 46.742477 18.3046875 46.7734375 C-17.79477414 44.29564868 -17.79477414 44.29564868 -49.5078125 55.7734375 C-53.34525191 62.75060007 -52.90049326 72.63017187 -51.3203125 80.2734375 C-48.45676403 86.24953865 -43.86423044 89.10765319 -37.8203125 91.5234375 C-18.02776561 97.99562719 4.74919291 96.41610111 25.29385185 96.47266769 C29.27048968 96.48466063 33.2470558 96.50389042 37.22364807 96.52578735 C48.51600576 96.58692129 59.80835258 96.64161757 71.10083008 96.67480469 C77.37300004 96.69331522 83.64503222 96.72243552 89.91710049 96.7628094 C93.21285457 96.78357553 96.50840536 96.7975873 99.80422783 96.80161667 C129.14583979 96.84131356 162.81671221 98.60438754 185.22802734 120.20556641 C195.99859758 131.05872728 202.40380423 143.90993018 202.453125 159.40234375 C202.4597818 160.15450668 202.4664386 160.90666962 202.47329712 161.68162537 C202.48335716 163.26567163 202.48811622 164.84975971 202.48779297 166.43383789 C202.49213319 168.8062504 202.52842929 171.17674758 202.56640625 173.54882812 C202.69931269 191.50805976 198.46459248 207.47810573 185.7890625 220.85546875 C155.33958932 248.41135165 107.43752767 244.74465916 69.31600213 244.67641401 C63.66193241 244.66871992 58.00787597 244.67588782 52.35380554 244.68057251 C42.88745449 244.68599359 33.42117424 244.67892629 23.95483398 244.66455078 C13.02306524 244.64814132 2.09146367 244.65358725 -8.84030122 244.67003 C-18.27017066 244.68364253 -27.69998985 244.68556835 -37.12986594 244.67771399 C-42.74401682 244.67304771 -48.35808897 244.67238569 -53.97223473 244.68232346 C-59.23303343 244.69099056 -64.49361542 244.68497592 -69.75439072 244.66764069 C-71.68169991 244.66367836 -73.60902738 244.66480553 -75.53632927 244.67142868 C-78.16893012 244.67964197 -80.80083851 244.66932638 -83.43339539 244.65438843 C-84.19291478 244.66108059 -84.95243418 244.66777276 -85.73496932 244.67466772 C-92.25160579 244.6030648 -96.95424495 243.20200505 -101.6953125 238.4609375 C-105.45004544 232.98975522 -106.24868921 227.93747177 -106.1953125 221.3984375 C-106.19039795 220.69098389 -106.1854834 219.98353027 -106.18041992 219.25463867 C-106.02434163 212.31115576 -104.98187786 207.88308633 -100.5703125 202.3984375 C-95.35499574 198.27469867 -90.03344022 197.98040062 -83.58679199 198.00842285 C-82.35660269 198.00185095 -82.35660269 198.00185095 -81.10156107 197.99514627 C-78.36127123 197.98285312 -75.62117355 197.9846326 -72.88085938 197.98632812 C-70.91256426 197.98030189 -68.94427173 197.97337713 -66.97598267 197.96562195 C-62.73957057 197.95074065 -58.50320555 197.9419855 -54.26676941 197.93791199 C-47.55821037 197.93118854 -40.84975158 197.90941987 -34.14123535 197.88537598 C-19.88845127 197.8364141 -5.63564586 197.80412294 8.6171875 197.7734375 C23.97792933 197.74032006 39.33863192 197.70423768 54.69931364 197.64930677 C61.35731262 197.62606042 68.01524234 197.61224245 74.67327785 197.60581207 C78.83232949 197.59983824 82.99132567 197.58571083 87.15034866 197.56946754 C89.06663409 197.56363269 90.9829332 197.56111068 92.89922714 197.56230736 C118.63680782 198.01744314 118.63680782 198.01744314 141.1171875 187.2734375 C146.70394513 179.84777845 145.94515556 170.06197348 145.1171875 161.2734375 C143.9634113 156.29056653 141.74939854 153.41374664 137.6171875 150.4609375 C125.4337211 143.76003098 110.50018915 144.12907347 96.98413086 144.11572266 C95.83581284 144.11064194 94.68749481 144.10556122 93.50437927 144.10032654 C91.02952247 144.08969504 88.55465649 144.0810471 86.0797863 144.07420731 C82.13539029 144.06228343 78.19106867 144.04306162 74.24671936 144.02108765 C63.03748353 143.95975376 51.82825306 143.90549621 40.61889648 143.87207031 C34.40970272 143.85347568 28.20064587 143.82423687 21.99155337 143.7840656 C18.72733119 143.76339346 15.46330883 143.74930967 12.19901848 143.74525833 C-22.72920321 143.69735339 -64.66155639 142.70376029 -92.0703125 117.8359375 C-96.04457311 113.68419795 -98.79609988 109.35667719 -101.3828125 104.2734375 C-101.70918701 103.63349854 -102.03556152 102.99355957 -102.37182617 102.33422852 C-106.92040768 92.73462703 -107.23127812 82.92414168 -107.19848633 72.45141602 C-107.1953227 70.34273673 -107.21887876 68.2354605 -107.24414062 66.12695312 C-107.31269809 51.57920778 -104.12233076 38.08857852 -93.94140625 27.20703125 C-75.64514566 10.02173905 -51.08679781 4.23686989 -26.8828125 1.2734375 C-26.21518387 1.18692429 -25.54755524 1.10041107 -24.85969543 1.01127625 C-16.59283072 0.05267349 -8.31032945 0.0522787 0 0 Z " fill="#EB2B2F" transform="translate(620.8828125,119.7265625)"/>
</svg>
